:SAMPLES-PER-SECOND 30
:FULLY-SPECIFIED
:DEGREES
94
root  76.7638 38.5805 0.276608 -58.075 86.0112 -56.7149
RightUpLeg  13.2732 1.80443 8.3695
RightLeg  10.1587 8.53644 -1.4196
RightFoot  -11.2328 0.00992962 -0.663498
RightToes  1.74622e-010 -1.59028e-015 9.93923e-017
Spine  -1.2597 4.67016 12.7481
Spine1  13.7644 6.93805 -8.17799
HEad  -7.04128 -4.40762 4.74132
LeftShoulder1  9.93923e-017 0 1.22299e-017
LeftArm  9.71594 57.6879 -46.5273
LeftForeArm  -7.97574 -7.47828 -4.45568
LeftHand  0.907804 6.30082 -2.91562
RightShoulder  1.98785e-016 -4.96962e-017 1.55301e-017
RightArm  12.4772 -5.62401 84.9713
RightForeArm  -36.4894 45.1174 -41.7571
RightHand  1.76218 -13.6292 -7.71924
LeftUpLeg  -27.9005 -2.61816 2.17204
LeftLeg  1.8922 -10.8986 -0.0755136
LeftFoot  5.31744 0.836714 -4.93742
LeftToes  -5.36576e-011 -1.15168e-011 3.25213e-012
95
root  78.6779 38.2546 0.0974157 -49.529 85.9151 -48.2902
RightUpLeg  15.8556 2.18807 7.67675
RightLeg  10.9756 8.65611 -1.59944
RightFoot  -11.4873 -0.0058957 0.468362
RightToes  1.74622e-010 -1.59028e-015 9.93923e-017
Spine  -2.26034 4.92506 13.421
Spine1  14.891 7.79868 -9.96233
HEad  -7.30514 -4.91004 4.81183
LeftShoulder1  9.93923e-017 0 1.22299e-017
LeftArm  4.71548 56.0824 -45.9289
LeftForeArm  -5.33112 -3.2666 -5.33736
LeftHand  0.941921 6.65201 -1.64598
RightShoulder  1.98785e-016 -4.96962e-017 1.55301e-017
RightArm  11.343 -5.61259 85.3761
RightForeArm  -35.976 44.7397 -41.3211
RightHand  1.82793 -13.7976 -8.28685
LeftUpLeg  -27.4521 -2.91152 1.63811
LeftLeg  -0.91131 -8.85936 1.09153
LeftFoot  2.24314 0.600206 -4.31355
LeftToes  -5.36576e-011 -1.15168e-011 3.25213e-012
96
root  80.7456 37.8486 -0.109008 -31.5845 85.6525 -31.1267
RightUpLeg  17.0189 3.67821 6.23703
RightLeg  13.53 8.01693 -1.32163
RightFoot  -11.5368 -0.0320675 2.94954
RightToes  1.74622e-010 -1.59028e-015 9.93923e-017
Spine  -3.95692 5.49385 12.9612
Spine1  15.6335 8.66902 -11.1135
HEad  -7.65797 -5.27726 5.07081
LeftShoulder1  9.93923e-017 0 1.22299e-017
LeftArm  0.985754 54.8084 -46.633
LeftForeArm  -3.20416 -1.42148 -5.21392
LeftHand  0.995176 7.07779 -0.585958
RightShoulder  1.98785e-016 -4.96962e-017 1.55301e-017
RightArm  10.6764 -7.75673 86.3265
RightForeArm  -35.8699 43.9089 -40.3018
RightHand  1.86339 -13.8266 -8.73947
LeftUpLeg  -27.916 -3.60945 1.25457
LeftLeg  1.59257 -5.02786 1.58135
LeftFoot  5.01665 0.637021 -3.82236
LeftToes  -5.36576e-011 -1.15168e-011 3.25213e-012
97
root  82.8503 37.4043 -0.325791 -7.20857 85.576 -7.34702
RightUpLeg  16.9053 3.43952 2.73266
RightLeg  18.5472 8.95916 -0.19457
RightFoot  -9.64683 -0.214139 6.5607
RightToes  1.74622e-010 -1.59028e-015 9.93923e-017
Spine  -5.00111 5.70233 10.5506
Spine1  15.4078 8.79342 -11.2071
HEad  -8.49602 -5.35808 5.83753
LeftShoulder1  9.93923e-017 0 1.22299e-017
LeftArm  -2.33284 54.3199 -48.7587
LeftForeArm  -2.84139 -1.40524 -4.68785
LeftHand  1.03721 7.38157 -0.239999
RightShoulder  1.98785e-016 -4.96962e-017 1.55301e-017
RightArm  11.0358 -11.4477 87.8682
RightForeArm  -35.5509 42.1046 -38.2241
RightHand  1.89235 -13.7895 -9.26603
LeftUpLeg  -28.9727 -6.19988 0.845495
LeftLeg  7.49261 -0.633517 2.03301
LeftFoot  11.1658 0.506255 -2.26353
LeftToes  -5.36576e-011 -1.15168e-011 3.25213e-012
98
root  84.799 37.0474 -0.542279 21.5173 85.5692 21.7004
RightUpLeg  15.425 0.914306 -2.1508
RightLeg  26.7146 11.6999 1.34424
RightFoot  -2.33453 -0.736384 8.01283
RightToes  1.74622e-010 -1.59028e-015 9.93923e-017
Spine  -3.97768 5.08102 7.15823
Spine1  14.4714 8.11335 -11.1996
HEad  -9.92551 -5.33547 6.58218
LeftShoulder1  9.93923e-017 0 1.22299e-017
LeftArm  -6.34982 53.3736 -53.0178
LeftForeArm  -4.31372 -1.33399 -4.48906
LeftHand  1.05089 7.50893 -1.30938
RightShoulder  1.98785e-016 -4.96962e-017 1.55301e-017
RightArm  12.6773 -15.6453 89.7121
RightForeArm  -34.8972 38.6354 -34.651
RightHand  1.87392 -13.6781 -9.28568
LeftUpLeg  -29.975 -9.65492 -0.502727
LeftLeg  15.1443 1.88835 3.1242
LeftFoot  13.08 -0.0531273 0.43999
LeftToes  -5.36576e-011 -1.15168e-011 3.25213e-012
99
root  86.4818 36.837 -0.747799 43.3743 84.9991 44.418
RightUpLeg  11.8747 -0.14941 -5.78618
RightLeg  37.3944 12.91 2.5178
RightFoot  9.64133 -1.52318 7.61012
RightToes  1.74622e-010 -1.59028e-015 9.93923e-017
Spine  -1.67183 4.25688 4.22638
Spine1  13.9187 7.22425 -11.6429
HEad  -11.3589 -5.31503 6.38954
LeftShoulder1  9.93923e-017 0 1.22299e-017
LeftArm  -11.6287 50.672 -59.3756
LeftForeArm  -5.16923 -1.30382 -4.43677
LeftHand  1.03414 7.40835 -3.21055
RightShoulder  1.98785e-016 -4.96962e-017 1.55301e-017
RightArm  16.9265 -19.3558 91.3148
RightForeArm  -35.4808 33.1866 -29.783
RightHand  1.75167 -13.423 -8.07825
LeftUpLeg  -30.1075 -10.9271 -3.11579
LeftLeg  22.352 1.59182 4.73512
LeftFoot  8.69543 -0.453066 2.49342
LeftToes  -5.36576e-011 -1.15168e-011 3.25213e-012
100
root  88.0056 36.7845 -0.917804 48.763 84.0566 50.3661
RightUpLeg  6.23064 1.13027 -7.14414
RightLeg  48.0985 11.813 1.87479
RightFoot  19.5041 -2.51557 8.53057
RightToes  1.74622e-010 -1.59028e-015 9.93923e-017
Spine  -0.343419 3.847 1.88373
Spine1  14.5169 6.42728 -11.5691
HEad  -11.755 -4.87847 5.28018
LeftShoulder1  9.93923e-017 0 1.22299e-017
LeftArm  -16.522 46.4354 -66.4454
LeftForeArm  -5.16765 -1.11455 -4.77715
LeftHand  1.01802 7.3075 -5.40409
RightShoulder  1.98785e-016 -4.96962e-017 1.55301e-017
RightArm  27.139 -22.2938 92.2793
RightForeArm  -40.8553 26.5138 -24.776
RightHand  1.54222 -13.099 -5.521
LeftUpLeg  -29.1059 -10.0942 -5.27867
LeftLeg  27.1062 0.77727 5.88962
LeftFoot  2.94406 -0.377153 2.61319
LeftToes  -5.36576e-011 -1.15168e-011 3.25213e-012
101
root  89.5941 36.9829 -1.03669 45.6003 83.4596 47.3548
RightUpLeg  -0.151451 2.95744 -6.92907
RightLeg  56.614 10.2545 -0.229431
RightFoot  22.7345 -2.78949 8.66267
RightToes  1.74622e-010 -1.59028e-015 9.93923e-017
Spine  -0.884412 3.49514 -0.203329
Spine1  15.7237 5.44658 -10.3975
HEad  -10.4865 -3.59142 4.31124
LeftShoulder1  9.93923e-017 0 1.22299e-017
LeftArm  -18.0004 41.8217 -72.5982
LeftForeArm  -6.18675 -3.97144 -4.80161
LeftHand  1.03604 7.55984 -7.20885
RightShoulder  1.98785e-016 -4.96962e-017 1.55301e-017
RightArm  41.0597 -25.2231 92.5174
RightForeArm  -49.1388 21.5863 -19.6639
RightHand  1.30323 -12.8495 -2.03257
LeftUpLeg  -26.7433 -8.76515 -6.2886
LeftLeg  28.6662 0.237343 6.08777
LeftFoot  -0.374086 -0.232444 2.03122
LeftToes  -5.36576e-011 -1.15168e-011 3.25213e-012
